<?xml version="1.0" standalone="no"?>
<!DOCTYPE svg PUBLIC "-//W3C//DTD SVG 20010904//EN"
 "http://www.w3.org/TR/2001/REC-SVG-20010904/DTD/svg10.dtd">
<svg version="1.0" xmlns="http://www.w3.org/2000/svg"
 width="24.000000pt" height="24.000000pt" viewBox="0 0 24.000000 24.000000"
 preserveAspectRatio="xMidYMid meet">

<g transform="translate(0.000000,24.000000) scale(0.100000,-0.100000)"
fill="#000000" stroke="none">
<path d="M95 200 c-3 -5 -15 -10 -27 -10 -18 0 -20 -4 -14 -31 3 -17 6 -53 6
-80 l0 -49 60 0 60 0 0 49 c0 27 3 63 6 80 6 27 4 31 -14 31 -12 0 -24 5 -27
10 -3 6 -15 10 -25 10 -10 0 -22 -4 -25 -10z m85 -30 c0 -6 -27 -10 -60 -10
-33 0 -60 4 -60 10 0 6 27 10 60 10 33 0 60 -4 60 -10z m-10 -75 l0 -55 -50 0
-50 0 0 55 0 55 50 0 50 0 0 -55z"/>
<path d="M103 95 c0 -22 2 -30 4 -17 2 12 2 30 0 40 -3 9 -5 -1 -4 -23z"/>
<path d="M133 95 c0 -22 2 -30 4 -17 2 12 2 30 0 40 -3 9 -5 -1 -4 -23z"/>
</g>
</svg>
